# xmcd CD database file
#
# Track frame offsets:
#	150
#	17353
#	32192
#	46343
#	63463
#	77410
#	97813
#	123062
#	138223
#	152496
#	178145
#	204604
#
# Disc length: 2878 seconds
#
# Revision: 0
# Processed by: cddbd v1.5.1PL0 Copyright (c) Steve Scherf et al.
# Submitted via: CDex 1.40Release
#
DISCID=8b0b3c0c
DTITLE=Marcello Zagni - Senza parole ...... a volte è meglio
DYEAR=2005
DGENRE=Blues
TTITLE0=Uno lento
TTITLE1=Lunedi mattina
TTITLE2=In Harley to Nashville
TTITLE3=Mr. Eric
TTITLE4=Mr. Miles
TTITLE5=Mr. Dr. Jon blues
TTITLE6=Mr. Tajmall
TTITLE7=Fryday, rock'n roll fryday
TTITLE8=Bossa pa ti
TTITLE9=Struscio
TTITLE10=Introspettiva
TTITLE11=Est to Ovest Pony Express
EXTD=YEAR: 2005 ID3G: 0
EXTT0=
EXTT1=
EXTT2=
EXTT3=
EXTT4=
EXTT5=
EXTT6=
EXTT7=
EXTT8=
EXTT9=
EXTT10=
EXTT11=
PLAYORDER=
